<svg version="1.0" xmlns="http://www.w3.org/2000/svg"
 width="216.000000pt" height="215.000000pt" viewBox="0 0 216.000000 215.000000"
 preserveAspectRatio="xMidYMid meet">

<g transform="translate(0.000000,215.000000) scale(0.100000,-0.100000)"
fill="#000000" stroke="none">
<path d="M909 2005 c-180 -34 -347 -119 -481 -244 -181 -169 -281 -386 -294
-636 -25 -457 278 -859 732 -972 94 -23 323 -23 416 0 177 44 326 126 451 246
121 115 202 250 254 418 24 80 27 103 27 253 1 128 -3 179 -17 230 -47 170
-118 297 -236 422 -127 134 -272 221 -446 268 -105 28 -299 35 -406 15z m380
-96 c239 -61 449 -233 551 -450 38 -82 70 -207 70 -276 l0 -53 -836 0 -837 0
6 68 c10 100 32 177 81 277 123 250 359 414 651 455 82 12 223 2 314 -21z
m631 -854 l0 -25 -845 0 c-813 0 -845 1 -845 18 0 10 3 22 7 25 3 4 384 7 845
7 l838 0 0 -25z m-882 -97 l-15 -23 -392 -3 -391 -2 0 25 0 25 406 0 406 0
-14 -22z m882 10 c-1 -38 -5 -38 -409 -36 l-394 3 -15 23 -14 22 416 0 c326 0
416 -3 416 -12z m-821 -90 c38 -52 43 -116 11 -148 -11 -11 -24 -20 -30 -20
-6 0 -10 -90 -10 -251 0 -164 -3 -248 -10 -244 -6 4 -10 98 -10 250 0 231 -1
245 -19 255 -33 17 -45 72 -26 117 13 31 51 83 61 83 1 0 16 -19 33 -42z
m-113 -14 c-3 -9 -6 -20 -6 -25 0 -5 -148 -9 -359 -9 -376 0 -371 -1 -371 41
0 5 152 9 371 9 334 0 371 -2 365 -16z m912 -6 l-3 -23 -366 -3 -366 -2 -11
25 -12 25 381 0 380 0 -3 -22z m-1334 -103 c-16 -25 -19 -25 -145 -25 -72 0
-129 4 -129 9 0 5 -3 16 -6 25 -5 14 11 16 145 16 l151 0 -16 -25z m408 0 l5
-25 -148 0 c-136 0 -149 2 -159 19 -5 11 -10 22 -10 25 0 3 69 6 154 6 l154 0
4 -25z m460 0 c-28 -24 -36 -25 -157 -25 -112 0 -126 2 -121 16 3 9 6 20 6 25
0 5 66 9 151 9 l151 0 -30 -25z m434 9 c-3 -9 -6 -20 -6 -25 0 -5 -43 -9 -96
-9 -80 0 -102 4 -130 21 -19 11 -34 23 -34 25 0 2 61 4 136 4 120 0 135 -2
130 -16z m-1199 -106 c-2 -13 -4 -5 -4 17 -1 22 1 32 4 23 2 -10 2 -28 0 -40z
m293 27 c40 -20 60 -53 60 -95 0 -55 -10 -63 -58 -50 -51 13 -88 59 -98 118
l-7 42 37 0 c20 0 50 -7 66 -15z m305 -22 c-14 -78 -54 -120 -117 -125 -33 -3
-33 -3 -36 45 -2 30 2 55 10 64 24 30 73 53 112 53 l38 0 -7 -37z m-765 -8 c0
-25 -1 -25 -78 -25 -74 0 -79 1 -90 25 l-12 25 90 0 c89 0 90 0 90 -25z m320
16 c0 -5 3 -16 6 -25 5 -13 -2 -16 -35 -16 -23 0 -41 4 -41 9 0 5 -3 16 -6 25
-5 13 2 16 35 16 23 0 41 -4 41 -9z m580 -16 c0 -23 -3 -25 -50 -25 -50 0 -55
4 -44 34 4 11 19 16 50 16 40 0 44 -2 44 -25z m418 3 c-13 -19 -26 -23 -82
-26 -65 -3 -66 -2 -66 23 0 25 1 25 81 25 l81 0 -14 -22z m-1111 -50 c-2 -13
-4 -5 -4 17 -1 22 1 32 4 23 2 -10 2 -28 0 -40z m841 -11 c3 -21 -1 -27 -17
-27 -23 0 -32 18 -19 43 13 25 32 16 36 -16z m-912 -1 c7 -29 -1 -46 -22 -46
-20 0 -28 24 -14 49 14 28 28 26 36 -3z m-136 -42 c0 -23 -3 -25 -41 -22 -30
2 -46 9 -57 26 -14 22 -14 22 42 22 53 0 56 -1 56 -26z m360 7 c16 -31 13 -32
-47 -29 -51 3 -58 6 -61 26 -3 20 0 22 47 22 39 0 53 -4 61 -19z m540 -6 c0
-24 -2 -25 -75 -25 l-75 0 16 25 c14 22 23 25 75 25 56 0 59 -1 59 -25z m370
18 c-1 -23 -30 -43 -64 -43 -32 0 -36 3 -36 25 0 23 3 25 50 25 28 0 50 -3 50
-7z m-262 -25 c18 -18 15 -48 -6 -48 -23 0 -42 19 -42 42 0 21 30 24 48 6z
m102 -6 c0 -25 -19 -42 -47 -42 -27 0 -30 21 -7 44 21 22 54 21 54 -2z m-1022
-4 c7 -7 12 -20 12 -30 0 -21 -30 -24 -48 -6 -7 7 -12 20 -12 30 0 21 30 24
48 6z m112 1 c0 -22 -22 -49 -40 -49 -27 0 -32 13 -14 38 16 23 54 30 54 11z
m-190 -79 c0 -11 -4 -20 -8 -20 -5 0 -17 9 -27 20 -18 20 -17 20 8 20 20 0 27
-5 27 -20z m71 10 c20 -11 27 -60 8 -60 -25 0 -49 22 -49 45 0 27 11 31 41 15z
m119 -9 c0 -22 -25 -51 -45 -51 -22 0 -25 30 -5 50 25 25 50 26 50 1z m130 -6
c0 -23 -3 -25 -50 -25 -47 0 -50 2 -50 25 0 23 3 25 50 25 47 0 50 -2 50 -25z
m125 11 c46 -20 67 -55 63 -108 -3 -43 -3 -43 -38 -40 -65 7 -120 66 -120 132
0 27 3 30 30 30 17 0 46 -6 65 -14z m315 -14 c0 -64 -59 -127 -125 -134 -29
-3 -30 -1 -33 40 -5 72 45 121 126 122 28 0 32 -3 32 -28z m140 3 c0 -24 -3
-25 -55 -25 -52 0 -55 1 -55 25 0 24 3 25 55 25 52 0 55 -1 55 -25z m88 9 c23
-16 30 -54 10 -54 -19 0 -48 31 -48 52 0 22 9 23 38 2z m112 -1 c0 -20 -28
-53 -46 -53 -33 0 -25 46 10 60 31 13 36 12 36 -7z m80 14 c0 -2 -9 -12 -20
-22 -19 -18 -20 -17 -20 3 0 15 6 22 20 22 11 0 20 -2 20 -3z m-846 -112 c9
-13 16 -27 16 -30 0 -3 -43 -5 -96 -5 -80 0 -103 4 -135 22 -22 12 -39 25 -39
30 0 4 53 8 119 8 115 0 119 -1 135 -25z m716 18 c0 -5 -16 -18 -35 -30 -31
-20 -48 -23 -145 -23 -60 0 -110 3 -110 8 0 4 7 18 16 30 14 21 22 22 145 22
71 0 129 -3 129 -7z m-542 -121 c4 -24 4 -24 -90 -20 -67 3 -105 10 -138 26
l-45 21 135 -2 c133 -2 135 -2 138 -25z m392 23 c0 -15 -141 -45 -211 -45 -78
0 -79 0 -79 25 l0 25 145 0 c80 0 145 -2 145 -5z"/>
<path d="M947 1900 c-281 -51 -493 -211 -612 -461 -35 -75 -65 -186 -65 -246
l0 -33 270 0 c249 0 271 1 276 18 29 91 87 156 167 187 57 21 165 17 215 -9
53 -27 109 -92 127 -147 l17 -49 273 0 273 0 -5 43 c-24 204 -119 379 -280
517 -68 59 -230 141 -323 165 -76 19 -264 28 -333 15z m143 -236 c0 -76 -4
-124 -10 -124 -6 0 -10 50 -10 131 0 84 4 128 10 124 6 -4 10 -58 10 -131z
m-281 -129 c24 -36 41 -68 38 -72 -4 -3 -8 -4 -10 -2 -26 32 -87 124 -87 131
0 20 18 3 59 -57z m611 59 c0 -7 -92 -134 -97 -134 -13 0 4 35 39 83 37 51 58
69 58 51z m-823 -225 c122 -70 118 -67 110 -75 -7 -7 -202 99 -227 122 -30 29
11 12 117 -47z m1073 47 c-28 -26 -219 -120 -227 -112 -4 5 -3 10 2 13 6 2 55
28 110 58 99 54 146 71 115 41z"/>
</g>
</svg>
